<svg preserveAspectRatio="none" width="100%" height="100%" overflow="visible" style="display: block;" viewBox="0 0 32 32" fill="none" xmlns="http://www.w3.org/2000/svg">
<g id="favicon">
<rect width="32" height="32" rx="4" fill="var(--fill-0, #222222)"/>
<path id="256" d="M26.4765 24.9998H22.1964C22.0105 25.0033 21.8277 24.951 21.6714 24.8498C21.5151 24.7485 21.3923 24.6028 21.3186 24.4313L16.6722 13.5158C16.6601 13.4733 16.6346 13.4359 16.5997 13.409C16.5647 13.3822 16.522 13.3674 16.478 13.3668C16.4341 13.3663 16.391 13.3799 16.3554 13.4058C16.3197 13.4318 16.2933 13.4685 16.2801 13.5107L13.3845 20.4412C13.3687 20.4787 13.3625 20.5195 13.3663 20.56C13.3701 20.6005 13.3838 20.6394 13.4062 20.6733C13.4286 20.7072 13.459 20.735 13.4946 20.7542C13.5303 20.7734 13.5702 20.7835 13.6107 20.7835H16.7936C16.89 20.7835 16.9843 20.812 17.0646 20.8655C17.145 20.919 17.2079 20.9951 17.2456 21.0843L18.6391 24.2001C18.676 24.2875 18.6908 24.3828 18.6822 24.4773C18.6735 24.5719 18.6417 24.6629 18.5895 24.7421C18.5374 24.8213 18.4665 24.8863 18.3833 24.9313C18.3 24.9762 18.207 24.9998 18.1124 24.9998H6.52512C6.43797 24.9993 6.3523 24.9771 6.27574 24.9353C6.19919 24.8934 6.13413 24.8332 6.08638 24.76C6.03862 24.6867 6.00964 24.6027 6.00202 24.5155C5.9944 24.4283 6.00839 24.3405 6.04273 24.26L13.4131 6.62518C13.4885 6.43853 13.6181 6.27904 13.785 6.16753C13.9519 6.05602 14.1484 5.99766 14.3489 6.00009H18.5999C18.8004 5.99742 18.9971 6.05567 19.1641 6.16722C19.331 6.27876 19.4606 6.43839 19.5357 6.62518L26.9572 24.26C26.9915 24.3404 27.0055 24.428 26.998 24.5151C26.9905 24.6022 26.9617 24.6861 26.9141 24.7593C26.8665 24.8326 26.8017 24.8928 26.7253 24.9348C26.649 24.9767 26.5635 24.9991 26.4765 24.9998Z" fill="url(#paint0_linear_12_5005)"/>
</g>
<defs>
<linearGradient id="paint0_linear_12_5005" x1="11.5371" y1="6" x2="24.7965" y2="25.3684" gradientUnits="userSpaceOnUse">
<stop stop-color="#FF0000"/>
<stop offset="0.466346" stop-color="#FF21C9"/>
<stop offset="1" stop-color="#008CFF"/>
</linearGradient>
</defs>
</svg>





